<svg width="154" height="154" viewBox="0 0 154 154" fill="none" xmlns="http://www.w3.org/2000/svg">
<g filter="url(#filter0_d_1072_13305)">
<rect x="5" y="3.68756" width="144" height="144" rx="6.75" fill="#00C1B6"/>
<g clip-path="url(#clip0_1072_13305)">
<path fill-rule="evenodd" clip-rule="evenodd" d="M118.646 69.3464L117.944 69.1821L104.945 82.1816L89.9117 67.1487C73.3608 67.9417 60.7692 71.9746 60.7692 76.8232V120.302H60.8088C61.6188 125.524 77.0142 129.688 95.8874 129.688C114.761 129.688 131.006 125.292 131.006 119.871V76.8232C131.006 73.8268 126.214 71.1476 118.658 69.3464H118.646Z" fill="white"/>
<path d="M131 119.866C131 125.286 115.276 129.682 95.8817 129.682C76.4874 129.682 60.7635 125.286 60.7635 119.866V108.537C60.7635 113.958 76.4874 118.353 95.8817 118.353C115.276 118.353 131 113.958 131 108.537V119.866ZM131 105.518C131 110.939 115.276 115.334 95.8817 115.334C76.4874 115.334 60.7635 110.939 60.7635 105.518V94.1898C60.7635 99.6105 76.4874 104.006 95.8817 104.006C115.276 104.006 131 99.6105 131 94.1898V105.518ZM131 91.1708C131 96.5914 115.276 100.987 95.8817 100.987C76.4874 100.987 60.7635 96.5914 60.7635 91.1708V79.8423C60.7635 85.263 76.4874 89.6584 95.8817 89.6584C115.276 89.6584 131 85.263 131 79.8423V91.1708ZM104.945 82.1759L117.944 69.1765L118.646 69.3408C126.202 71.142 131 73.8212 131 76.8176C131 82.2383 115.276 86.6337 95.8817 86.6337C76.4874 86.6337 60.7635 82.2383 60.7635 76.8176C60.7635 71.9633 73.3607 67.9361 89.9116 67.1431L104.95 82.1759H104.945ZM35.4613 54.1606L63.7825 45.0979V54.1606L91.7242 45.0979V59.0715L87.2608 63.5349C73.5363 64.5035 57.3479 67.953 56.9854 76.5287V76.8176L56.9798 82.1023H23L25.2657 21.6876H34.3285L35.4613 54.1606ZM107.584 66.7182L114.024 60.278L117.763 64.0164L104.945 76.8346L92.1264 64.0164L95.8647 60.278L102.305 66.7182V45.0979H107.59V66.7182H107.584ZM130.604 35.2647L126.865 39.0031L120.425 32.5629V54.9196H115.14V32.5629L108.7 39.0031L104.962 35.2647L117.78 22.4409L130.598 35.2591L130.604 35.2647Z" fill="#000028"/>
</g>
</g>
<defs>
<filter id="filter0_d_1072_13305" x="0.5" y="0.593811" width="153" height="153" filterUnits="userSpaceOnUse" color-interpolation-filters="sRGB">
<feFlood flood-opacity="0" result="BackgroundImageFix"/>
<feColorMatrix in="SourceAlpha" type="matrix" values="0 0 0 0 0 0 0 0 0 0 0 0 0 0 0 0 0 0 127 0" result="hardAlpha"/>
<feOffset dy="1.40625"/>
<feGaussianBlur stdDeviation="2.25"/>
<feColorMatrix type="matrix" values="0 0 0 0 0 0 0 0 0 0 0 0 0 0 0 0 0 0 0.16 0"/>
<feBlend mode="normal" in2="BackgroundImageFix" result="effect1_dropShadow_1072_13305"/>
<feBlend mode="normal" in="SourceGraphic" in2="effect1_dropShadow_1072_13305" result="shape"/>
</filter>
<clipPath id="clip0_1072_13305">
<rect width="108" height="108" fill="white" transform="translate(23 21.6876)"/>
</clipPath>
</defs>
</svg>
