<svg id="icons" xmlns="http://www.w3.org/2000/svg" xmlns:xlink="http://www.w3.org/1999/xlink" viewBox="0 0 144 144">
  <defs>
    <style>
      .cls-1 {
        fill: url(#EDGE_app_icons_Kopie);
      }
    </style>
    <linearGradient id="EDGE_app_icons_Kopie" data-name="EDGE_app_icons Kopie" x1="71.5" y1="-0.16" x2="71.5" y2="143.67" gradientUnits="userSpaceOnUse">
      <stop offset="0" stop-color="#50bebe"/>
      <stop offset="0.5" stop-color="#099"/>
      <stop offset="0.83" stop-color="#0099b0"/>
      <stop offset="1" stop-color="#0099cb"/>
    </linearGradient>
  </defs>
  <path class="cls-1" d="M142.85,78H143V93h-.15C141,99.71,121,105,96.5,105S52,99.71,50.15,93H50V78h.15C52,84.71,72,90,96.5,90S141,84.71,142.85,78ZM96.5,109C72,109,52,103.71,50.15,97H50v15h.15C52,118.71,72,124,96.5,124s44.52-5.29,46.35-12H143V97h-.15C141,103.71,121,109,96.5,109Zm0,19C72,128,52,122.71,50.15,116H50v15h.15C52,137.71,72,143,96.5,143s44.52-5.29,46.35-12H143V116h-.15C141,122.71,121,128,96.5,128ZM126,.74,109.64,17.1l3.46,3.46,9.13-6.88L123,43H129l.8-29.32,9.13,6.88,3.46-3.46ZM45,78V73c0-12.92,26.76-17.23,46-17.9V31L54,43V31L16.5,43,15,0H3L0,80H45Zm82.36-21.18-3.46-3.46-9.13,6.88L114,30.92H108l-.8,29.32L98.1,53.36l-3.46,3.46L111,73.17Zm.49,6.58L114.54,76.71,111,80.25l-3.54-3.54L91.11,60.35l-.26-.25C67.84,60.88,50,66.36,50,73c0,7.18,20.82,13,46.5,13S143,80.18,143,73C143,69.2,137.16,65.78,127.85,63.4Z"/>
</svg>
